<?xml version="1.0" encoding="UTF-8" standalone="no"?>
<svg
   class="logo"
   viewBox="0 0 586.6 121.43"
   version="1.1"
   id="svg22"
   sodipodi:docname="logo_inspire_BW.svg"
   inkscape:version="1.3.2 (091e20e, 2023-11-25)"
   xmlns:inkscape="http://www.inkscape.org/namespaces/inkscape"
   xmlns:sodipodi="http://sodipodi.sourceforge.net/DTD/sodipodi-0.dtd"
   xmlns="http://www.w3.org/2000/svg"
   xmlns:svg="http://www.w3.org/2000/svg">
  <defs
     id="defs26">
    <filter
       style="color-interpolation-filters:sRGB;"
       inkscape:label="Invert"
       id="filter1"
       x="0"
       y="0"
       width="1"
       height="1">
      <feColorMatrix
         values="1 0 0 0 0 0 1 0 0 0 0 0 1 0 0 -0.21 -0.72 -0.07 2 0 "
         result="fbSourceGraphic"
         id="feColorMatrix1" />
      <feColorMatrix
         result="fbSourceGraphicAlpha"
         in="fbSourceGraphic"
         values="0 0 0 -1 0 0 0 0 -1 0 0 0 0 -1 0 0 0 0 1 0"
         id="feColorMatrix9" />
      <feColorMatrix
         id="feColorMatrix10"
         values="1 0 0 0 0 0 1 0 0 0 0 0 1 0 0 -0.21 -0.72 -0.07 2 0 "
         result="fbSourceGraphic"
         in="fbSourceGraphic" />
      <feColorMatrix
         result="fbSourceGraphicAlpha"
         in="fbSourceGraphic"
         values="0 0 0 -1 0 0 0 0 -1 0 0 0 0 -1 0 0 0 0 1 0"
         id="feColorMatrix25" />
      <feColorMatrix
         id="feColorMatrix26"
         type="hueRotate"
         values="180"
         result="color1"
         in="fbSourceGraphic" />
      <feColorMatrix
         id="feColorMatrix27"
         values="1 0 0 0 0 0 1 0 0 0 0 0 1 0 0 -0.21 -0.72 -0.07 2 0 "
         result="fbSourceGraphic" />
      <feColorMatrix
         result="fbSourceGraphicAlpha"
         in="fbSourceGraphic"
         values="0 0 0 -1 0 0 0 0 -1 0 0 0 0 -1 0 0 0 0 1 0"
         id="feColorMatrix49" />
      <feColorMatrix
         id="feColorMatrix50"
         type="hueRotate"
         values="180"
         result="color1"
         in="fbSourceGraphic" />
      <feColorMatrix
         id="feColorMatrix51"
         values="-1 0 0 0 1 0 -1 0 0 1 0 0 -1 0 1 -0.21 -0.72 -0.07 2 0 "
         result="color2" />
    </filter>
    <filter
       style="color-interpolation-filters:sRGB;"
       inkscape:label="Invert"
       id="filter2"
       x="0"
       y="0"
       width="1"
       height="1">
      <feColorMatrix
         values="1 0 0 0 0 0 1 0 0 0 0 0 1 0 0 -0.21 -0.72 -0.07 2 0 "
         result="fbSourceGraphic"
         id="feColorMatrix2" />
      <feColorMatrix
         result="fbSourceGraphicAlpha"
         in="fbSourceGraphic"
         values="0 0 0 -1 0 0 0 0 -1 0 0 0 0 -1 0 0 0 0 1 0"
         id="feColorMatrix11" />
      <feColorMatrix
         id="feColorMatrix12"
         values="1 0 0 0 0 0 1 0 0 0 0 0 1 0 0 -0.21 -0.72 -0.07 2 0 "
         result="fbSourceGraphic"
         in="fbSourceGraphic" />
      <feColorMatrix
         result="fbSourceGraphicAlpha"
         in="fbSourceGraphic"
         values="0 0 0 -1 0 0 0 0 -1 0 0 0 0 -1 0 0 0 0 1 0"
         id="feColorMatrix28" />
      <feColorMatrix
         id="feColorMatrix29"
         type="hueRotate"
         values="180"
         result="color1"
         in="fbSourceGraphic" />
      <feColorMatrix
         id="feColorMatrix30"
         values="1 0 0 0 0 0 1 0 0 0 0 0 1 0 0 -0.21 -0.72 -0.07 2 0 "
         result="fbSourceGraphic" />
      <feColorMatrix
         result="fbSourceGraphicAlpha"
         in="fbSourceGraphic"
         values="0 0 0 -1 0 0 0 0 -1 0 0 0 0 -1 0 0 0 0 1 0"
         id="feColorMatrix52" />
      <feColorMatrix
         id="feColorMatrix53"
         type="hueRotate"
         values="180"
         result="color1"
         in="fbSourceGraphic" />
      <feColorMatrix
         id="feColorMatrix54"
         values="-1 0 0 0 1 0 -1 0 0 1 0 0 -1 0 1 -0.21 -0.72 -0.07 2 0 "
         result="color2" />
    </filter>
    <filter
       style="color-interpolation-filters:sRGB;"
       inkscape:label="Invert"
       id="filter3"
       x="0"
       y="0"
       width="1"
       height="1">
      <feColorMatrix
         values="1 0 0 0 0 0 1 0 0 0 0 0 1 0 0 -0.21 -0.72 -0.07 2 0 "
         result="fbSourceGraphic"
         id="feColorMatrix3" />
      <feColorMatrix
         result="fbSourceGraphicAlpha"
         in="fbSourceGraphic"
         values="0 0 0 -1 0 0 0 0 -1 0 0 0 0 -1 0 0 0 0 1 0"
         id="feColorMatrix13" />
      <feColorMatrix
         id="feColorMatrix14"
         values="1 0 0 0 0 0 1 0 0 0 0 0 1 0 0 -0.21 -0.72 -0.07 2 0 "
         result="fbSourceGraphic"
         in="fbSourceGraphic" />
      <feColorMatrix
         result="fbSourceGraphicAlpha"
         in="fbSourceGraphic"
         values="0 0 0 -1 0 0 0 0 -1 0 0 0 0 -1 0 0 0 0 1 0"
         id="feColorMatrix31" />
      <feColorMatrix
         id="feColorMatrix32"
         type="hueRotate"
         values="180"
         result="color1"
         in="fbSourceGraphic" />
      <feColorMatrix
         id="feColorMatrix33"
         values="1 0 0 0 0 0 1 0 0 0 0 0 1 0 0 -0.21 -0.72 -0.07 2 0 "
         result="fbSourceGraphic" />
      <feColorMatrix
         result="fbSourceGraphicAlpha"
         in="fbSourceGraphic"
         values="0 0 0 -1 0 0 0 0 -1 0 0 0 0 -1 0 0 0 0 1 0"
         id="feColorMatrix55" />
      <feColorMatrix
         id="feColorMatrix56"
         type="hueRotate"
         values="180"
         result="color1"
         in="fbSourceGraphic" />
      <feColorMatrix
         id="feColorMatrix57"
         values="-1 0 0 0 1 0 -1 0 0 1 0 0 -1 0 1 -0.21 -0.72 -0.07 2 0 "
         result="color2" />
    </filter>
    <filter
       style="color-interpolation-filters:sRGB;"
       inkscape:label="Invert"
       id="filter4"
       x="0"
       y="0"
       width="1"
       height="1">
      <feColorMatrix
         values="1 0 0 0 0 0 1 0 0 0 0 0 1 0 0 -0.21 -0.72 -0.07 2 0 "
         result="fbSourceGraphic"
         id="feColorMatrix4" />
      <feColorMatrix
         result="fbSourceGraphicAlpha"
         in="fbSourceGraphic"
         values="0 0 0 -1 0 0 0 0 -1 0 0 0 0 -1 0 0 0 0 1 0"
         id="feColorMatrix15" />
      <feColorMatrix
         id="feColorMatrix16"
         values="1 0 0 0 0 0 1 0 0 0 0 0 1 0 0 -0.21 -0.72 -0.07 2 0 "
         result="fbSourceGraphic"
         in="fbSourceGraphic" />
      <feColorMatrix
         result="fbSourceGraphicAlpha"
         in="fbSourceGraphic"
         values="0 0 0 -1 0 0 0 0 -1 0 0 0 0 -1 0 0 0 0 1 0"
         id="feColorMatrix34" />
      <feColorMatrix
         id="feColorMatrix35"
         type="hueRotate"
         values="180"
         result="color1"
         in="fbSourceGraphic" />
      <feColorMatrix
         id="feColorMatrix36"
         values="1 0 0 0 0 0 1 0 0 0 0 0 1 0 0 -0.21 -0.72 -0.07 2 0 "
         result="fbSourceGraphic" />
      <feColorMatrix
         result="fbSourceGraphicAlpha"
         in="fbSourceGraphic"
         values="0 0 0 -1 0 0 0 0 -1 0 0 0 0 -1 0 0 0 0 1 0"
         id="feColorMatrix58" />
      <feColorMatrix
         id="feColorMatrix59"
         type="hueRotate"
         values="180"
         result="color1"
         in="fbSourceGraphic" />
      <feColorMatrix
         id="feColorMatrix60"
         values="-1 0 0 0 1 0 -1 0 0 1 0 0 -1 0 1 -0.21 -0.72 -0.07 2 0 "
         result="color2" />
    </filter>
    <filter
       style="color-interpolation-filters:sRGB;"
       inkscape:label="Invert"
       id="filter5"
       x="0"
       y="0"
       width="1"
       height="1">
      <feColorMatrix
         values="1 0 0 0 0 0 1 0 0 0 0 0 1 0 0 -0.21 -0.72 -0.07 2 0 "
         result="fbSourceGraphic"
         id="feColorMatrix5" />
      <feColorMatrix
         result="fbSourceGraphicAlpha"
         in="fbSourceGraphic"
         values="0 0 0 -1 0 0 0 0 -1 0 0 0 0 -1 0 0 0 0 1 0"
         id="feColorMatrix17" />
      <feColorMatrix
         id="feColorMatrix18"
         values="1 0 0 0 0 0 1 0 0 0 0 0 1 0 0 -0.21 -0.72 -0.07 2 0 "
         result="fbSourceGraphic"
         in="fbSourceGraphic" />
      <feColorMatrix
         result="fbSourceGraphicAlpha"
         in="fbSourceGraphic"
         values="0 0 0 -1 0 0 0 0 -1 0 0 0 0 -1 0 0 0 0 1 0"
         id="feColorMatrix37" />
      <feColorMatrix
         id="feColorMatrix38"
         type="hueRotate"
         values="180"
         result="color1"
         in="fbSourceGraphic" />
      <feColorMatrix
         id="feColorMatrix39"
         values="1 0 0 0 0 0 1 0 0 0 0 0 1 0 0 -0.21 -0.72 -0.07 2 0 "
         result="fbSourceGraphic" />
      <feColorMatrix
         result="fbSourceGraphicAlpha"
         in="fbSourceGraphic"
         values="0 0 0 -1 0 0 0 0 -1 0 0 0 0 -1 0 0 0 0 1 0"
         id="feColorMatrix61" />
      <feColorMatrix
         id="feColorMatrix62"
         type="hueRotate"
         values="180"
         result="color1"
         in="fbSourceGraphic" />
      <feColorMatrix
         id="feColorMatrix63"
         values="-1 0 0 0 1 0 -1 0 0 1 0 0 -1 0 1 -0.21 -0.72 -0.07 2 0 "
         result="color2" />
    </filter>
    <filter
       style="color-interpolation-filters:sRGB;"
       inkscape:label="Invert"
       id="filter6"
       x="0"
       y="0"
       width="1"
       height="1">
      <feColorMatrix
         values="1 0 0 0 0 0 1 0 0 0 0 0 1 0 0 -0.21 -0.72 -0.07 2 0 "
         result="fbSourceGraphic"
         id="feColorMatrix6" />
      <feColorMatrix
         result="fbSourceGraphicAlpha"
         in="fbSourceGraphic"
         values="0 0 0 -1 0 0 0 0 -1 0 0 0 0 -1 0 0 0 0 1 0"
         id="feColorMatrix19" />
      <feColorMatrix
         id="feColorMatrix20"
         values="1 0 0 0 0 0 1 0 0 0 0 0 1 0 0 -0.21 -0.72 -0.07 2 0 "
         result="fbSourceGraphic"
         in="fbSourceGraphic" />
      <feColorMatrix
         result="fbSourceGraphicAlpha"
         in="fbSourceGraphic"
         values="0 0 0 -1 0 0 0 0 -1 0 0 0 0 -1 0 0 0 0 1 0"
         id="feColorMatrix40" />
      <feColorMatrix
         id="feColorMatrix41"
         type="hueRotate"
         values="180"
         result="color1"
         in="fbSourceGraphic" />
      <feColorMatrix
         id="feColorMatrix42"
         values="1 0 0 0 0 0 1 0 0 0 0 0 1 0 0 -0.21 -0.72 -0.07 2 0 "
         result="fbSourceGraphic" />
      <feColorMatrix
         result="fbSourceGraphicAlpha"
         in="fbSourceGraphic"
         values="0 0 0 -1 0 0 0 0 -1 0 0 0 0 -1 0 0 0 0 1 0"
         id="feColorMatrix64" />
      <feColorMatrix
         id="feColorMatrix65"
         type="hueRotate"
         values="180"
         result="color1"
         in="fbSourceGraphic" />
      <feColorMatrix
         id="feColorMatrix66"
         values="-1 0 0 0 1 0 -1 0 0 1 0 0 -1 0 1 -0.21 -0.72 -0.07 2 0 "
         result="color2" />
    </filter>
    <filter
       style="color-interpolation-filters:sRGB;"
       inkscape:label="Invert"
       id="filter7"
       x="0"
       y="0"
       width="1"
       height="1">
      <feColorMatrix
         values="1 0 0 0 0 0 1 0 0 0 0 0 1 0 0 -0.21 -0.72 -0.07 2 0 "
         result="fbSourceGraphic"
         id="feColorMatrix7" />
      <feColorMatrix
         result="fbSourceGraphicAlpha"
         in="fbSourceGraphic"
         values="0 0 0 -1 0 0 0 0 -1 0 0 0 0 -1 0 0 0 0 1 0"
         id="feColorMatrix21" />
      <feColorMatrix
         id="feColorMatrix22"
         values="1 0 0 0 0 0 1 0 0 0 0 0 1 0 0 -0.21 -0.72 -0.07 2 0 "
         result="fbSourceGraphic"
         in="fbSourceGraphic" />
      <feColorMatrix
         result="fbSourceGraphicAlpha"
         in="fbSourceGraphic"
         values="0 0 0 -1 0 0 0 0 -1 0 0 0 0 -1 0 0 0 0 1 0"
         id="feColorMatrix43" />
      <feColorMatrix
         id="feColorMatrix44"
         type="hueRotate"
         values="180"
         result="color1"
         in="fbSourceGraphic" />
      <feColorMatrix
         id="feColorMatrix45"
         values="1 0 0 0 0 0 1 0 0 0 0 0 1 0 0 -0.21 -0.72 -0.07 2 0 "
         result="fbSourceGraphic" />
      <feColorMatrix
         result="fbSourceGraphicAlpha"
         in="fbSourceGraphic"
         values="0 0 0 -1 0 0 0 0 -1 0 0 0 0 -1 0 0 0 0 1 0"
         id="feColorMatrix67" />
      <feColorMatrix
         id="feColorMatrix68"
         type="hueRotate"
         values="180"
         result="color1"
         in="fbSourceGraphic" />
      <feColorMatrix
         id="feColorMatrix69"
         values="-1 0 0 0 1 0 -1 0 0 1 0 0 -1 0 1 -0.21 -0.72 -0.07 2 0 "
         result="color2" />
    </filter>
    <filter
       style="color-interpolation-filters:sRGB;"
       inkscape:label="Invert"
       id="filter8"
       x="0"
       y="0"
       width="1"
       height="1">
      <feColorMatrix
         values="1 0 0 0 0 0 1 0 0 0 0 0 1 0 0 -0.21 -0.72 -0.07 2 0 "
         result="fbSourceGraphic"
         id="feColorMatrix8" />
      <feColorMatrix
         result="fbSourceGraphicAlpha"
         in="fbSourceGraphic"
         values="0 0 0 -1 0 0 0 0 -1 0 0 0 0 -1 0 0 0 0 1 0"
         id="feColorMatrix23" />
      <feColorMatrix
         id="feColorMatrix24"
         values="1 0 0 0 0 0 1 0 0 0 0 0 1 0 0 -0.21 -0.72 -0.07 2 0 "
         result="fbSourceGraphic"
         in="fbSourceGraphic" />
      <feColorMatrix
         result="fbSourceGraphicAlpha"
         in="fbSourceGraphic"
         values="0 0 0 -1 0 0 0 0 -1 0 0 0 0 -1 0 0 0 0 1 0"
         id="feColorMatrix46" />
      <feColorMatrix
         id="feColorMatrix47"
         type="hueRotate"
         values="180"
         result="color1"
         in="fbSourceGraphic" />
      <feColorMatrix
         id="feColorMatrix48"
         values="1 0 0 0 0 0 1 0 0 0 0 0 1 0 0 -0.21 -0.72 -0.07 2 0 "
         result="fbSourceGraphic" />
      <feColorMatrix
         result="fbSourceGraphicAlpha"
         in="fbSourceGraphic"
         values="0 0 0 -1 0 0 0 0 -1 0 0 0 0 -1 0 0 0 0 1 0"
         id="feColorMatrix70" />
      <feColorMatrix
         id="feColorMatrix71"
         type="hueRotate"
         values="180"
         result="color1"
         in="fbSourceGraphic" />
      <feColorMatrix
         id="feColorMatrix72"
         values="-1 0 0 0 1 0 -1 0 0 1 0 0 -1 0 1 -0.21 -0.72 -0.07 2 0 "
         result="color2" />
    </filter>
  </defs>
  <sodipodi:namedview
     id="namedview24"
     pagecolor="#ffffff"
     bordercolor="#666666"
     borderopacity="1.0"
     inkscape:pageshadow="2"
     inkscape:pageopacity="0.0"
     inkscape:pagecheckerboard="0"
     showgrid="false"
     inkscape:zoom="0.73868121"
     inkscape:cx="275.49097"
     inkscape:cy="50.766148"
     inkscape:window-width="1512"
     inkscape:window-height="844"
     inkscape:window-x="0"
     inkscape:window-y="38"
     inkscape:window-maximized="1"
     inkscape:current-layer="svg22"
     inkscape:showpageshadow="2"
     inkscape:deskcolor="#d1d1d1" />
  <path
     d="m 474,40 v 13.7 h 14.45 V 40 h 7.85 v 35.7 h -7.85 V 60.34 H 474 v 15.4 h -7.85 V 40 Z m 67.35,0 v 6.6 H 522.5 v 7.65 h 17.3 v 6.1 h -17.3 v 8.75 h 19.25 v 6.6 h -27.1 V 40 Z m 32.9,0 a 14.89,14.89 0 0 1 5.7,1 10.75,10.75 0 0 1 3.82,2.57 10,10 0 0 1 2.15,3.65 13.56,13.56 0 0 1 0,8.48 9.86,9.86 0 0 1 -2.15,3.67 A 10.64,10.64 0 0 1 580,62 14.9,14.9 0 0 1 574.3,63 H 566 v 12.8 h -7.85 V 40 Z m -2.15,16.8 a 15.74,15.74 0 0 0 2.6,-0.2 6.11,6.11 0 0 0 2.2,-0.77 4.27,4.27 0 0 0 1.52,-1.63 6.81,6.81 0 0 0 0,-5.5 4.17,4.17 0 0 0 -1.52,-1.62 6.12,6.12 0 0 0 -2.2,-0.78 16.91,16.91 0 0 0 -2.6,-0.2 H 566 v 10.7 z"
     style="fill:#ffffff;filter:url(#filter1)"
     id="path2" />
  <circle
     cx="431.31"
     cy="57.950001"
     r="16.469999"
     style="fill:#9a9a9a;fill-opacity:1;filter:url(#filter2)"
     id="circle4" />
  <circle
     cx="416.82001"
     cy="94.839996"
     r="10.38"
     style="fill:#9a9a9a;fill-opacity:1;filter:url(#filter3)"
     id="circle6" />
  <circle
     cx="415.51001"
     cy="23.700001"
     r="10.38"
     style="fill:#9a9a9a;fill-opacity:1;filter:url(#filter4)"
     id="circle8" />
  <path
     d="m 392.89,12.44 a 6.22,6.22 0 1 0 -6.22,-6.22 6.23,6.23 0 0 0 6.22,6.22 z M 393.1,109 a 6.22,6.22 0 1 0 6.22,6.22 6.23,6.23 0 0 0 -6.22,-6.22 z"
     style="fill:#9a9a9a;fill-opacity:1;filter:url(#filter5)"
     id="path10" />
  <path
     d="m 115.85,82.19 a 15.33,15.33 0 0 0 5,6 21,21 0 0 0 7.58,3.2 43,43 0 0 0 9.37,1 26.63,26.63 0 0 0 6.21,-0.81 21.71,21.71 0 0 0 6.26,-2.6 15.87,15.87 0 0 0 4.83,-4.58 11.59,11.59 0 0 0 1.94,-6.77 9.88,9.88 0 0 0 -1.38,-5.29 12.54,12.54 0 0 0 -3.56,-3.77 20.8,20.8 0 0 0 -4.83,-2.49 47.07,47.07 0 0 0 -5.2,-1.58 l -16.18,-4 a 46.78,46.78 0 0 1 -6.16,-2 17.55,17.55 0 0 1 -5.24,-3.25 15.46,15.46 0 0 1 -3.62,-5 17.18,17.18 0 0 1 -1.33,-7.25 23.08,23.08 0 0 1 1,-6.21 17.32,17.32 0 0 1 3.82,-6.72 22.18,22.18 0 0 1 7.68,-5.34 30.79,30.79 0 0 1 12.52,-2.19 36.48,36.48 0 0 1 10.3,1.46 25.25,25.25 0 0 1 8.55,4.27 20.59,20.59 0 0 1 8.05,16.9 h -6.93 a 16.77,16.77 0 0 0 -1.88,-7.28 16.22,16.22 0 0 0 -4.38,-5.19 19.27,19.27 0 0 0 -6.21,-3.16 25.28,25.28 0 0 0 -7.38,-1.07 30.46,30.46 0 0 0 -6.87,0.77 17.23,17.23 0 0 0 -5.8,2.44 12.72,12.72 0 0 0 -4,4.43 13.87,13.87 0 0 0 -1.53,6.82 10.48,10.48 0 0 0 0.87,4.43 9.25,9.25 0 0 0 2.39,3.2 12.46,12.46 0 0 0 3.51,2.14 26.12,26.12 0 0 0 4.21,1.3 l 17.71,4.37 a 50.62,50.62 0 0 1 7.28,2.5 24,24 0 0 1 6,3.66 15.39,15.39 0 0 1 4.07,5.35 17.78,17.78 0 0 1 1.48,7.63 27.52,27.52 0 0 1 -0.25,3.26 16.14,16.14 0 0 1 -1.23,4.32 21.57,21.57 0 0 1 -2.74,4.64 17.44,17.44 0 0 1 -4.89,4.27 28.15,28.15 0 0 1 -7.69,3 44.85,44.85 0 0 1 -11,1.17 46,46 0 0 1 -11.9,-1.47 25.77,25.77 0 0 1 -9.36,-4.53 20,20 0 0 1 -6,-7.84 25.74,25.74 0 0 1 -1.78,-11.5 h 6.92 a 20.43,20.43 0 0 0 1.77,9.36 z m 91.41,-58.12 a 26.88,26.88 0 0 1 8.86,1.37 18.79,18.79 0 0 1 6.82,4.07 18.06,18.06 0 0 1 4.38,6.57 23.86,23.86 0 0 1 1.52,8.75 23.88,23.88 0 0 1 -1.52,8.76 17.93,17.93 0 0 1 -4.38,6.56 18.67,18.67 0 0 1 -6.82,4.08 27.14,27.14 0 0 1 -8.86,1.37 H 181.92 V 96.75 H 175 V 24.07 Z m -1.52,35.63 c 4.81,0 8.72,-1.23 11.7,-3.67 2.98,-2.44 4.48,-6.17 4.48,-11.2 0,-5.03 -1.49,-8.75 -4.48,-11.19 C 214.45,31.2 210.55,30 205.74,30 h -23.82 v 29.7 z m 40.81,-35.63 v 72.68 h -6.92 V 24.07 Z m 48.45,0 a 31.44,31.44 0 0 1 8.5,1.12 20.32,20.32 0 0 1 7,3.41 16.4,16.4 0 0 1 4.79,5.9 19.12,19.12 0 0 1 1.81,8.5 20.42,20.42 0 0 1 -3.56,12 16.25,16.25 0 0 1 -10.54,6.53 v 0.2 a 16.26,16.26 0 0 1 5.9,1.88 12,12 0 0 1 3.82,3.52 14.47,14.47 0 0 1 2.14,4.93 35.8,35.8 0 0 1 0.86,6.06 c 0.07,1.22 0.14,2.72 0.21,4.48 0.07,1.76 0.2,3.55 0.4,5.34 a 33.77,33.77 0 0 0 1,5.09 9.63,9.63 0 0 0 1.67,3.72 h -7.6 a 8.87,8.87 0 0 1 -1,-2.5 21.33,21.33 0 0 1 -0.51,-3 c -0.1,-1 -0.19,-2.09 -0.25,-3.1 -0.06,-1.01 -0.14,-1.9 -0.21,-2.65 q -0.19,-3.87 -0.66,-7.69 a 21.09,21.09 0 0 0 -1.93,-6.82 12,12 0 0 0 -4.28,-4.83 c -1.87,-1.22 -4.43,-1.77 -7.68,-1.63 h -26.24 v 32.22 h -6.92 V 24.07 Z m -0.51,34.51 a 18.67,18.67 0 0 0 6,-1 15,15 0 0 0 5,-2.8 13.66,13.66 0 0 0 3.41,-4.43 13.32,13.32 0 0 0 1.28,-6 q 0,-6.72 -3.87,-10.59 Q 302.44,29.89 294.5,30 H 268.64 V 58.58 Z M 379.8,24.07 V 30 h -43.26 v 26.23 h 40.51 v 5.91 h -40.51 v 28.7 h 43.77 v 5.91 H 329.62 V 24.07 Z"
     style="fill:#ffffff;filter:url(#filter6)"
     id="path12" />
  <circle
     cx="8.4499998"
     cy="30.540001"
     r="8.4499998"
     style="fill:#9a9a9a;fill-opacity:1;filter:url(#filter7)"
     id="circle14" />
  <path
     d="M 16.37,45.97 H 1.08 V 96.82 H 16.37 V 45.99 l 0.04,0.05 V 46.02 Z M 44.62,24.38 75,73.14 h 0.2 V 24.38 h 15 v 72.68 h -16 L 43.91,48.4 H 43.7 v 48.66 h -15 V 24.38 Z"
     style="fill:#ffffff;filter:url(#filter8)"
     id="path16" />
</svg>
